<?xml version="1.0" encoding="UTF-8"?>
<svg width="24px" height="22px" viewBox="0 0 24 22" version="1.1" xmlns="http://www.w3.org/2000/svg" xmlns:xlink="http://www.w3.org/1999/xlink">
    <!-- Generator: Sketch 49.3 (51167) - http://www.bohemiancoding.com/sketch -->
    <title>community</title>
    <desc>Created with Sketch.</desc>
    <defs></defs>
    <g id="Templates" stroke="none" stroke-width="1" fill="none" fill-rule="evenodd">
        <g id="juju-documentation-home-template-008" transform="translate(-333.000000, -917.000000)" fill="#E95420" fill-rule="nonzero">
            <g id="getting-support/contribute" transform="translate(244.000000, 807.000000)">
                <g id="Medium-and-large-screens" transform="translate(89.000000, 109.000000)">
                    <g id="community">
                        <g id="pictogram-community-orange">
                            <g transform="translate(0.000000, 1.200000)">
                                <path d="M19.14,0.018 L4.86,0.018 C1.914,2.208 0,5.712 0,9.66 C0,16.278 5.382,21.66 12,21.66 C18.618,21.66 24,16.278 24,9.66 C24,5.712 22.086,2.208 19.14,0.018 Z M1.62,9.696 C1.35,9.234 1.35,8.664 1.62,8.196 C2.826,6.114 5.064,4.824 7.458,4.824 C9.156,4.824 10.776,5.472 12.006,6.588 L12,6.6 C13.23,5.484 14.85,4.83 16.548,4.83 C17.376,4.83 18.042,5.502 18.042,6.324 C18.042,7.152 17.37,7.818 16.548,7.818 C15.528,7.818 14.562,8.238 13.866,8.946 C14.562,9.66 15.528,10.074 16.548,10.074 C17.376,10.074 18.042,10.746 18.042,11.568 C18.042,12.396 17.37,13.062 16.548,13.062 C14.85,13.062 13.23,12.414 12,11.292 C10.77,12.408 9.156,13.056 7.458,13.056 C5.058,13.068 2.82,11.778 1.62,9.696 Z M18.696,16.83 C18.096,17.868 16.974,18.516 15.774,18.516 C14.922,18.516 14.118,18.192 13.5,17.634 C12.888,18.192 12.078,18.522 11.226,18.522 C10.812,18.522 10.476,18.186 10.476,17.772 C10.476,17.358 10.812,17.022 11.226,17.022 C11.736,17.022 12.216,16.812 12.564,16.458 C12.216,16.104 11.73,15.894 11.226,15.894 C10.812,15.894 10.476,15.558 10.476,15.144 C10.476,14.73 10.812,14.394 11.226,14.394 C12.078,14.394 12.888,14.718 13.506,15.282 L13.5,15.276 C14.112,14.718 14.922,14.394 15.774,14.394 C16.974,14.394 18.09,15.042 18.696,16.08 C18.828,16.314 18.828,16.596 18.696,16.83 Z M17.634,16.086 C17.634,16.5 17.298,16.836 16.884,16.836 C16.47,16.836 16.134,16.5 16.134,16.086 C16.134,15.672 16.47,15.336 16.884,15.336 C17.298,15.336 17.634,15.672 17.634,16.086 Z M6.738,8.214 C6.738,9.042 6.066,9.714 5.238,9.714 C4.41,9.714 3.738,9.042 3.738,8.214 C3.738,7.386 4.41,6.714 5.238,6.714 C6.066,6.714 6.738,7.386 6.738,8.214 Z" id="Shape"></path>
                            </g>
                        </g>
                    </g>
                </g>
            </g>
        </g>
    </g>
</svg>