<?xml version="1.0" encoding="UTF-8"?>
<svg width="24px" height="24px" viewBox="0 0 24 24" version="1.1" xmlns="http://www.w3.org/2000/svg" xmlns:xlink="http://www.w3.org/1999/xlink">
    <!-- Generator: Sketch 49.3 (51167) - http://www.bohemiancoding.com/sketch -->
    <title>forum</title>
    <desc>Created with Sketch.</desc>
    <defs></defs>
    <g id="Templates" stroke="none" stroke-width="1" fill="none" fill-rule="evenodd">
        <g id="juju-documentation-home-template-008" transform="translate(-590.000000, -961.000000)" fill="#666666" fill-rule="nonzero">
            <g id="getting-support/contribute" transform="translate(244.000000, 807.000000)">
                <g id="Medium-and-large-screens" transform="translate(89.000000, 109.000000)">
                    <g id="forum" transform="translate(257.000000, 45.000000)">
                        <g id="pictogram-forum-orange">
                            <g transform="translate(0.800000, 0.000000)">
                                <path d="M8.184,8.256 C8.184,8.67 7.848,9.006 7.434,9.006 C7.02,9.006 6.684,8.67 6.684,8.256 C6.684,7.842 7.02,7.506 7.434,7.506 C7.848,7.506 8.184,7.842 8.184,8.256" id="Shape"></path>
                                <path d="M10.44,0 C9.018,0 7.656,0.252 6.39,0.702 C11.166,2.286 14.628,6.792 14.628,12.096 C14.628,12.126 14.628,12.15 14.628,12.18 C14.586,12.972 13.932,13.596 13.128,13.596 L9.378,13.596 L9.378,16.506 L8.94,16.506 C8.526,16.506 8.19,16.842 8.19,17.256 C8.19,17.67 8.526,18.006 8.94,18.006 L9.378,18.006 L9.378,21.18 C9.378,21.714 9.09,22.212 8.628,22.476 C8.004,22.836 7.35,23.136 6.678,23.376 C7.86,23.784 9.126,24 10.44,24 C17.058,24 22.44,18.618 22.44,12 C22.44,5.382 17.058,0 10.44,0 Z M11.946,18.012 C11.532,18.012 11.196,17.676 11.196,17.262 C11.196,16.848 11.532,16.512 11.946,16.512 C12.36,16.512 12.696,16.848 12.696,17.262 C12.696,17.676 12.36,18.012 11.946,18.012 Z M14.94,18.012 C14.526,18.012 14.19,17.676 14.19,17.262 C14.19,16.848 14.526,16.512 14.94,16.512 C15.354,16.512 15.69,16.848 15.69,17.262 C15.69,17.676 15.354,18.012 14.94,18.012 Z M17.958,18.012 C17.544,18.012 17.208,17.676 17.208,17.262 C17.208,16.848 17.544,16.512 17.958,16.512 C18.372,16.512 18.708,16.848 18.708,17.262 C18.708,17.676 18.372,18.012 17.958,18.012 Z M7.44,6 C8.682,6 9.69,7.008 9.69,8.25 C9.69,9.492 8.676,10.5 7.44,10.5 C6.198,10.5 5.19,9.492 5.19,8.25 C5.19,7.008 6.198,6 7.44,6 Z M3.69,8.25 C3.69,10.32 5.37,12 7.44,12 C9.51,12 11.19,10.32 11.19,8.25 C11.19,6.18 9.51,4.5 7.44,4.5 L1.08,4.5 C0.702,4.974 0.354,5.472 0.054,6 L4.44,6 C3.966,6.63 3.69,7.41 3.69,8.25 Z" id="Shape"></path>
                            </g>
                        </g>
                    </g>
                </g>
            </g>
        </g>
    </g>
</svg>