<?xml version="1.0" encoding="UTF-8"?>
<svg width="24px" height="24px" viewBox="0 0 24 24" version="1.1" xmlns="http://www.w3.org/2000/svg" xmlns:xlink="http://www.w3.org/1999/xlink">
    <!-- Generator: Sketch 49.3 (51167) - http://www.bohemiancoding.com/sketch -->
    <title>blog</title>
    <desc>Created with Sketch.</desc>
    <defs></defs>
    <g id="Templates" stroke="none" stroke-width="1" fill="none" fill-rule="evenodd">
        <g id="maas-documentation-home-template-008" transform="translate(-333.000000, -1151.000000)">
            <g id="getting-support/contribute" transform="translate(244.000000, 997.000000)">
                <g id="Medium-and-large-screens" transform="translate(89.000000, 109.000000)">
                    <g id="blog" transform="translate(0.000000, 45.000000)">
                        <g id="ubuntu">
                            <g>
                                <circle id="Oval" fill="#DD4814" cx="11.8121745" cy="11.8121745" r="11.8121745"></circle>
                                <path d="M3.78033367,10.2347335 C2.90887112,10.2347335 2.20289263,10.940712 2.20289263,11.8121745 C2.20289263,12.6831159 2.90887112,13.3890944 3.78033367,13.3890944 C4.65153562,13.3890944 5.35751411,12.6831159 5.35751411,11.8121745 C5.3572535,10.940712 4.65127502,10.2347335 3.78033367,10.2347335 L3.78033367,10.2347335 Z M15.0402866,17.4024088 C14.2858356,17.83814 14.0273156,18.8021173 14.4630469,19.5560471 C14.898257,20.3104981 15.8622342,20.5690181 16.6169458,20.1332868 C17.3713968,19.6980767 17.6299168,18.7340995 17.1941855,17.9796485 C16.7587148,17.2259793 15.7942164,16.9671987 15.0402866,17.4024088 L15.0402866,17.4024088 Z M7.20598417,11.8121745 C7.20598417,10.2537577 7.98024112,8.87672174 9.16469008,8.04304688 L8.0117743,6.11196509 C6.63187173,7.03424559 5.6056099,8.44359651 5.17873919,10.0942675 C5.67649442,10.5005504 5.99521413,11.1189657 5.99521413,11.8121745 C5.99521413,12.5048622 5.67649442,13.1232775 5.17873919,13.5295604 C5.60508869,15.1807526 6.63135052,16.5901035 8.0117743,17.512384 L9.16469008,15.580781 C7.97998052,14.7476274 7.20598417,13.370852 7.20598417,11.8121745 L7.20598417,11.8121745 Z M11.8121745,7.20520235 C14.2185996,7.20520235 16.193463,9.05028455 16.4001226,11.4032856 L18.647318,11.3701888 C18.536561,9.63299696 17.7776797,8.07353765 16.6114731,6.92661579 C16.0118214,7.15308139 15.3191338,7.11842095 14.7205245,6.77338015 C14.1208727,6.42729694 13.74482,5.84354211 13.6418811,5.20975117 C13.0591687,5.04895799 12.4457049,4.96087355 11.8116533,4.96087355 C10.7212827,4.96087355 9.69059062,5.2167875 8.77560706,5.6699793 L9.87145038,7.6336367 C10.4614597,7.35948041 11.1189657,7.20520235 11.8121745,7.20520235 L11.8121745,7.20520235 Z M11.8121745,16.4186255 C11.1189657,16.4186255 10.4611991,16.2643475 9.87197159,15.9899306 L8.77638888,17.953588 C9.69163304,18.4070404 10.7223251,18.6632149 11.8121745,18.6632149 C12.4467473,18.6632149 13.0596899,18.5751305 13.6424023,18.4138161 C13.7453412,17.7800252 14.121394,17.1967916 14.7210457,16.8501871 C15.3201762,16.5046251 16.0123426,16.4704859 16.6119943,16.6969515 C17.7784615,15.5502902 18.5370822,13.9905703 18.6478393,12.2533785 L16.4001226,12.2202817 C16.1932024,14.5740645 14.2188602,16.4186255 11.8121745,16.4186255 L11.8121745,16.4186255 Z M15.0397654,6.22089791 C15.794477,6.65662919 16.7584542,6.3986304 17.1936643,5.64417942 C17.6293956,4.88972844 17.3713968,3.92575117 16.6169458,3.49001989 C15.8622342,3.05480982 14.898257,3.31332982 14.4625257,4.0677808 C14.0273156,4.82171057 14.2860962,5.78568784 15.0397654,6.22089791 L15.0397654,6.22089791 Z" id="Shape" fill="#FFFFFF"></path>
                            </g>
                        </g>
                    </g>
                </g>
            </g>
        </g>
    </g>
</svg>