<?xml version="1.0" encoding="UTF-8"?>
<svg width="24px" height="24px" viewBox="0 0 24 24" version="1.1" xmlns="http://www.w3.org/2000/svg" xmlns:xlink="http://www.w3.org/1999/xlink">
    <!-- Generator: Sketch 49.3 (51167) - http://www.bohemiancoding.com/sketch -->
    <title>pictogram-email-orange</title>
    <desc>Created with Sketch.</desc>
    <defs></defs>
    <g id="Templates" stroke="none" stroke-width="1" fill="none" fill-rule="evenodd">
        <g id="conjure-up-documentation-home-template-008" transform="translate(-333.000000, -911.000000)" fill="#666666" fill-rule="nonzero">
            <g id="getting-support/contribute" transform="translate(244.000000, 712.000000)">
                <g id="Medium-and-large-screens" transform="translate(89.000000, 109.000000)">
                    <g id="pro-support" transform="translate(0.000000, 90.000000)">
                        <g id="pictogram-email-orange">
                            <path d="M23.9401496,12 C23.9401496,5.382 18.565586,0 11.9700748,0 C5.36857855,0 0,5.382 0,12 C0,18.618 5.36857855,24 11.9700748,24 L14.9625935,24 C15.7885287,24 16.4588529,23.328 16.4588529,22.5 C16.4588529,21.672 15.7885287,21 14.9625935,21 L11.9700748,21 C7.02044888,21 2.9925187,16.962 2.9925187,12 C2.9925187,7.038 7.02044888,3 11.9700748,3 C16.9197007,3 20.9476309,7.038 20.9476309,12 L20.953616,16.506 C20.953616,17.334 20.2832918,18.006 19.4573566,18.006 C18.6314214,18.006 17.9610973,17.334 17.9610973,16.506 L17.9610973,12 C17.9610973,8.694 15.2738155,6 11.9760599,6 C8.67830424,6 5.99102244,8.694 5.99102244,12 C5.99102244,15.306 8.67830424,18 11.9760599,18 C13.0892768,18 14.1246883,17.694 15.0224439,17.166 C15.3396509,19.338 17.2129676,21.006 19.4633416,21.006 C21.9351621,21.006 23.9521197,18.99 23.9521197,16.506 L23.9401496,12 Z M11.9700748,15 C10.3182045,15 8.97755611,13.656 8.97755611,12 C8.97755611,10.344 10.3182045,9 11.9700748,9 C13.6219451,9 14.9625935,10.344 14.9625935,12 C14.9625935,13.656 13.6219451,15 11.9700748,15 Z" id="Shape"></path>
                        </g>
                    </g>
                </g>
            </g>
        </g>
    </g>
</svg>