<?xml version="1.0" encoding="UTF-8"?>
<svg width="24px" height="22px" viewBox="0 0 24 22" version="1.1" xmlns="http://www.w3.org/2000/svg" xmlns:xlink="http://www.w3.org/1999/xlink">
    <!-- Generator: Sketch 49.3 (51167) - http://www.bohemiancoding.com/sketch -->
    <title>rocket-chat</title>
    <desc>Created with Sketch.</desc>
    <defs></defs>
    <g id="Templates" stroke="none" stroke-width="1" fill="none" fill-rule="evenodd">
        <g id="juju-documentation-home-template-008" transform="translate(-590.000000, -917.000000)" fill-rule="nonzero">
            <g id="getting-support/contribute" transform="translate(244.000000, 807.000000)">
                <g id="Medium-and-large-screens" transform="translate(89.000000, 109.000000)">
                    <g id="rocket-chat" transform="translate(257.000000, 0.000000)">
                        <g id="Shape">
                            <g transform="translate(0.000000, 1.600000)">
                                <path d="M23.9953125,10.2478125 C23.9953125,9.0425625 23.6353125,7.8875625 22.92375,6.813375 C22.2853125,5.8494375 21.3909375,4.996125 20.265,4.276875 C18.091875,2.8888125 15.23625,2.12409375 12.223125,2.12409375 C11.2171875,2.12409375 10.2253125,2.209125 9.2630625,2.3776875 C8.66625,1.8189375 7.96734375,1.31625 7.22803125,0.9189375 C3.277875,-0.995625 0.0020625,0.87391875 0.0020625,0.87391875 C0.0020281875,0.87391875 3.04771875,3.37591875 2.5524375,5.56891875 C1.18996875,6.9207 0.4513125,8.5506375 0.4513125,10.2477937 C0.451321875,10.2524813 0.45155625,10.2581063 0.45155625,10.2637313 C0.45155625,10.2693563 0.451321875,10.2740438 0.451321875,10.2796687 C0.451321875,11.9765438 1.1896875,13.6068563 2.55244687,14.9587313 C3.04772812,17.1515438 0.002071875,19.6537313 0.002071875,19.6537313 C0.0020375625,19.6537313 3.27788437,21.5231063 7.22804062,19.6087313 C7.96735312,19.2112313 8.66597812,18.7087313 9.26307187,18.1499812 C10.2253219,18.3177937 11.2171969,18.4031063 12.2231344,18.4031063 C15.2362594,18.4031063 18.0918844,17.6390438 20.2650094,16.2506063 C21.3909469,15.5315438 22.2853219,14.6784187 22.9237594,13.7137312 C23.6353219,12.6402937 23.9953219,11.4843562 23.9953219,10.2806062 L23.9953219,10.2637312 L23.9953219,10.2477937 L23.9953125,10.2478125 Z" fill="#C1272D"></path>
                                <path d="M12.223125,3.827625 C17.8021875,3.827625 22.3246875,6.7164375 22.3246875,10.2796875 C22.3246875,13.843125 17.8021875,16.7325 12.223125,16.7325 C10.9809375,16.7325 9.79125,16.588125 8.69259375,16.3265625 C7.5755625,17.67 5.118375,19.5384375 2.7313125,18.9346875 C3.50775,18.1003125 4.6580625,16.69125 4.411875,14.37 C2.9810625,13.2571875 2.1223125,11.8321875 2.1223125,10.2796875 C2.12203125,6.71615625 6.644625,3.827625 12.2229375,3.827625" fill="#FFFFFF"></path>
                                <path d="M12.223125,11.829375 C12.9646875,11.829375 13.565625,11.2284375 13.565625,10.4878125 C13.565625,9.74625 12.9646875,9.14559375 12.223125,9.14559375 C11.4825,9.14559375 10.8815625,9.74625 10.8815625,10.4878125 C10.8815625,11.2284375 11.4825,11.829375 12.223125,11.829375 Z M16.8890625,11.829375 C17.6296875,11.829375 18.230625,11.2284375 18.230625,10.4878125 C18.230625,9.74625 17.6296875,9.14559375 16.8890625,9.14559375 C16.1475,9.14559375 15.5465625,9.74625 15.5465625,10.4878125 C15.5465625,11.2284375 16.1475,11.829375 16.8890625,11.829375 Z M7.55784375,11.829375 C8.29884375,11.829375 8.8995,11.2284375 8.8995,10.4878125 C8.8995,9.74625 8.29884375,9.14578125 7.55784375,9.14578125 C6.81684375,9.14578125 6.2161875,9.74625 6.2161875,10.4878125 C6.2161875,11.2284375 6.81684375,11.829375 7.55784375,11.829375 Z" fill="#C1272D"></path>
                                <path d="M12.223125,15.883125 C10.9809375,15.883125 9.79125,15.7584375 8.69259375,15.5315625 C7.70634375,16.56 5.67496875,17.941875 3.5698125,17.89125 C3.29240625,18.3121875 2.99090625,18.6553125 2.7313125,18.9346875 C5.118375,19.5384375 7.5755625,17.67 8.69259375,16.3265625 C9.79125,16.588125 10.981875,16.7315625 12.223125,16.7315625 C17.7571875,16.7315625 22.2515625,13.8890625 22.3228125,10.365 C22.2515625,13.419375 17.7571875,15.883125 12.223125,15.883125 Z" fill="#CCCCCC"></path>
                            </g>
                        </g>
                    </g>
                </g>
            </g>
        </g>
    </g>
</svg>