<?xml version="1.0" encoding="UTF-8"?>
<svg width="24px" height="24px" viewBox="0 0 24 24" version="1.1" xmlns="http://www.w3.org/2000/svg" xmlns:xlink="http://www.w3.org/1999/xlink">
    <!-- Generator: Sketch 49.3 (51167) - http://www.bohemiancoding.com/sketch -->
    <title>blog</title>
    <desc>Created with Sketch.</desc>
    <defs></defs>
    <g id="Templates" stroke="none" stroke-width="1" fill="none" fill-rule="evenodd">
        <g id="conjure-up-documentation-home-template-008" transform="translate(-333.000000, -866.000000)" fill="#666666" fill-rule="nonzero">
            <g id="getting-support/contribute" transform="translate(244.000000, 712.000000)">
                <g id="Medium-and-large-screens" transform="translate(89.000000, 109.000000)">
                    <g id="blog" transform="translate(0.000000, 45.000000)">
                        <g id="icon-settings">
                            <g>
                                <path d="M6.85370318,3.32827461 C11.6909889,0.525974606 17.8971317,2.20228889 20.6952746,7.06498889 C23.4934175,11.9279889 21.8369889,18.1585603 16.9992746,20.9609889 C12.1619889,23.7634175 5.95670318,22.0872746 3.15856032,17.2247032 C0.360374606,12.3617032 2.01654603,6.13070318 6.85370318,3.32827461 Z M7.41727461,4.30756032 C3.10756032,6.80398889 1.63884603,12.3252746 4.13313175,16.659846 C6.62741746,20.9944175 12.126846,22.4789889 16.4365603,19.9821317 C20.745846,17.4857032 22.2145603,11.9644175 19.7202746,7.62984603 C17.2264175,3.29527461 11.7269889,1.81070318 7.41727461,4.30756032 Z" id="path5417" transform="translate(11.926860, 12.144701) scale(-1, 1) rotate(-90.000000) translate(-11.926860, -12.144701) "></path>
                                <path d="M13.8685714,0.152057143 L9.98571429,0.735171429 L9.98571429,2.742 C11.2662857,2.47752857 12.5875714,2.48018571 13.8685714,2.74971429 L13.8685714,0.152614286 L13.8685714,0.152057143 Z M5.92371429,1.91738571 L2.96528571,4.44514286 L4.42285714,6.19114286 C5.23328571,5.15957143 6.246,4.30628571 7.39842857,3.68442857 L5.92371429,1.91738571 Z M17.9142857,1.93615714 L16.4498571,3.69085714 C16.5342857,3.73457143 16.6182857,3.77914286 16.7014286,3.825 C17.7497143,4.43742857 18.6732857,5.244 19.4224286,6.20185714 L20.9052857,4.42585714 L17.9142857,1.93615714 Z M0.788142857,8.18858571 L0.138214286,12.0367286 L2.37347143,12.4331571 C2.33318571,11.1187286 2.56161429,9.8103 3.04504286,8.58887143 L0.788142857,8.18858571 Z M23.0417143,8.19287143 L20.7951429,8.59101429 C21.282,9.81158571 21.5147143,11.1191571 21.4791429,12.4327286 L23.7402857,12.0324429 L23.0417143,8.19287143 Z M2.85814286,15.1537286 L0.864428571,16.3113 L0.863914286,16.3113 L2.82728571,19.6785857 L4.80128571,18.5330143 C3.93085714,17.5515857 3.26957143,16.4013 2.85814286,15.1537286 Z M21.0034286,15.1580143 C20.8028571,15.7841571 20.5384286,16.3880143 20.2148571,16.9593 C19.8887143,17.5258714 19.5064286,18.0568714 19.0731429,18.5445857 L21.048,19.6910143 L22.968,16.2984429 L21.0034286,15.1580143 Z M6.906,20.3055857 L6.117,22.4835857 L9.77442857,23.7950143 L10.5501429,21.6517286 C9.35357143,21.4760143 8.20071429,21.0731571 7.15242857,20.4658714 C7.06928571,20.4135857 6.987,20.3604429 6.906,20.3055857 Z M16.9564286,20.3283 C15.8434286,21.0183 14.601,21.4713 13.3058571,21.6590143 L14.088,23.8185857 L17.7282857,22.4595857 L16.9564286,20.3283 Z" id="path4168" transform="translate(11.939250, 11.985321) rotate(-180.000000) translate(-11.939250, -11.985321) "></path>
                                <path d="M8.54381858,6.26510429 C11.7679614,4.39696143 15.9096757,5.51553286 17.7748186,8.75681858 C19.6395329,11.9976757 18.5346757,16.1565329 15.3101043,18.0246757 C12.0855329,19.8928186 7.94296143,18.7738186 6.07824715,15.5329614 C4.21310429,12.2916757 5.31924715,8.13281858 8.54381858,6.26510429 Z M9.10653286,7.24353286 C6.40996143,8.80610429 5.49239001,12.2548186 7.05324715,14.9676757 C8.61410429,17.6809614 12.0495329,18.6079614 14.7465329,17.04539 C17.4435329,15.4832471 18.3611043,12.0341043 16.8002471,9.32124715 C15.2389614,6.60839001 11.8035329,5.68139001 9.10653286,7.24353286 Z" id="ellipse4539" transform="translate(11.926547, 12.144843) scale(-1, 1) rotate(-90.000000) translate(-11.926547, -12.144843) "></path>
                            </g>
                        </g>
                    </g>
                </g>
            </g>
        </g>
    </g>
</svg>